<?xml version="1.0" standalone="no"?>
<!DOCTYPE svg PUBLIC "-//W3C//DTD SVG 20010904//EN"
 "http://www.w3.org/TR/2001/REC-SVG-20010904/DTD/svg10.dtd">
<svg version="1.0" xmlns="http://www.w3.org/2000/svg"
 width="400.000000pt" height="400.000000pt" viewBox="0 0 400.000000 400.000000"
 preserveAspectRatio="xMidYMid meet">
<metadata>
Created by potrace 1.14, written by Peter Selinger 2001-2017
</metadata>
<g transform="translate(0.000000,400.000000) scale(0.100000,-0.100000)"
fill="#000000" stroke="none">
<path d="M1849 3866 c-2 -2 -33 -7 -68 -10 -659 -69 -1259 -528 -1515 -1161
-45 -111 -100 -306 -112 -392 -3 -27 -9 -75 -14 -108 -8 -62 -6 -390 3 -435 3
-14 8 -43 11 -65 48 -326 214 -680 436 -930 177 -200 362 -341 597 -456 67
-32 128 -59 135 -59 8 0 18 -4 24 -8 5 -5 36 -17 69 -27 33 -10 71 -22 85 -26
35 -12 158 -39 200 -45 19 -2 64 -8 100 -13 112 -16 411 -6 535 18 184 34 338
86 503 167 99 50 279 161 316 196 8 7 33 29 57 48 81 65 222 214 294 311 140
188 247 404 306 619 7 25 14 50 15 55 2 6 13 60 24 120 33 170 35 425 6 635
-3 19 -14 73 -25 120 -160 681 -682 1215 -1358 1390 -157 40 -284 56 -456 58
-91 0 -167 -1 -168 -2z"/>
</g>
</svg>
